<svg xmlns="http://www.w3.org/2000/svg" width="305.522" height="466.656" viewBox="0 0 305.522 466.656">
  <g id="padlock-icon-closed" transform="translate(-580.681 -200.853)">
    <path id="Path_1" data-name="Path 1" d="M407.71,234.96H292.29a95.046,95.046,0,0,0-95.047,95.047v88.266a95.05,95.05,0,0,0,95.047,95.055H407.71a95.052,95.052,0,0,0,95.055-95.055V330.011a95.053,95.053,0,0,0-95.051-95.051Zm-48.332,147.6v23.184a9.389,9.389,0,0,1-18.777,0V382.56a25.619,25.619,0,1,1,18.778,0Z" transform="translate(383.438 154.181)"/>
    <path id="Path_2" data-name="Path 2" d="M303.23,126.09c0-24.727,20.984-44.848,46.773-44.848s46.773,20.121,46.773,44.848V230.34h35.535V126.09C432.3,82.3,395.381,46.672,350,46.672S267.7,82.3,267.7,126.094v104.25h35.531Z" transform="translate(383.438 154.181)"/>
  </g>
</svg>
