<svg xmlns="http://www.w3.org/2000/svg" width="305.522" height="466.656" viewBox="0 0 305.522 466.656">
  <g id="padlock-icon-open" transform="translate(-979.681 -200.853)">
    <path id="Path_3" data-name="Path 3" d="M407.71,234.96H292.29a95.046,95.046,0,0,0-95.047,95.047v88.266a95.05,95.05,0,0,0,95.047,95.055H407.71a95.052,95.052,0,0,0,95.055-95.055V330.011a95.053,95.053,0,0,0-95.051-95.051Zm-48.332,147.6v23.184a9.389,9.389,0,0,1-18.777,0V382.56a25.619,25.619,0,1,1,18.778,0Z" transform="translate(782.438 154.181)"/>
    <path id="Subtraction_1" data-name="Subtraction 1" d="M35.531,183.673H0V79.422C0,35.629,36.92,0,82.3,0s82.3,35.627,82.309,79.418V92.146H129.075V79.418c0-24.729-20.982-44.848-46.773-44.848S35.529,54.689,35.529,79.418l0,104.254Z" transform="translate(1050.139 200.853)"/>
  </g>
</svg>
